<?xml version="1.0" encoding="utf-8"?><svg viewBox="0 0 435.99 500" xmlns="http://www.w3.org/2000/svg" xmlns:xlink="http://www.w3.org/1999/xlink"><style>:root>svg{display:none}:root>svg:target{display:block}</style><svg viewBox="0 0 470 539" id="logo" xmlns="http://www.w3.org/2000/svg"><path d="M0 316.904V205.946h21.465v110.958H0zM44.488 316.904V205.946h48.846c5.084 0 9.768 1.071 14.074 3.202 4.305 2.132 8.016 4.954 11.122 8.434 3.116 3.491 5.546 7.445 7.309 11.873 1.763 4.428 2.644 8.887 2.644 13.367 0 7.188-1.793 13.727-5.371 19.607-3.578 5.89-8.426 10.133-14.546 12.738l25.197 41.726h-24.11l-22.552-37.195H65.954v37.195H44.488v.011zm21.466-56.102h26.908c1.968 0 3.813-.474 5.525-1.411 1.712-.937 3.188-2.214 4.439-3.831 1.24-1.617 2.224-3.511 2.952-5.705.728-2.183 1.087-4.531 1.087-7.033 0-2.605-.421-5.005-1.241-7.188-.83-2.183-1.947-4.088-3.342-5.705-1.404-1.617-3.013-2.863-4.817-3.748-1.815-.886-3.66-1.329-5.526-1.329H65.954v35.95zM147.939 316.904V205.946h21.466v92.041h56.317v18.906h-77.783v.011zM238.782 316.904V205.946h21.465v110.958h-21.465zM372.708 205.256h-23.177l-15.632 23.561 11.112 16.044 27.697-39.605zM371.007 315.874l-48.497-69.891-13.399-19.802-14.493-20.925h-23.331l39.353 56.266-38.112 54.692h23.341l26.283-39.698 26.139 39.698h23.177l-.236-.34h-.225zM195.728 404.862c-4.544 0-8.502-1.026-11.874-3.079-3.372-2.052-6.011-4.764-7.917-8.136v33.534h-14.733v-81.032h12.864v9.895c2.126-3.372 4.875-6.01 8.247-7.916 3.445-1.979 7.33-2.969 11.654-2.969 5.204 0 9.822 1.356 13.854 4.068 4.031 2.639 7.22 6.231 9.565 10.775 2.346 4.472 3.519 9.419 3.519 14.843 0 5.645-1.1 10.739-3.299 15.283-2.125 4.472-5.094 8.063-8.906 10.776-3.738 2.638-8.063 3.958-12.974 3.958zm-4.947-12.535c3.005 0 5.607-.806 7.806-2.418 2.272-1.686 4.032-3.849 5.278-6.487a19.369 19.369 0 001.979-8.577c0-3.225-.697-6.12-2.089-8.686-1.393-2.638-3.299-4.691-5.718-6.157-2.345-1.539-5.057-2.309-8.136-2.309-2.785 0-5.571.917-8.356 2.749-2.785 1.833-4.655 4.142-5.608 6.927v13.524a20.135 20.135 0 006.048 8.136c2.712 2.199 5.644 3.298 8.796 3.298zm39.558-10.115v-36.063h14.733v32.875c0 8.869 3.189 13.303 9.566 13.303 2.859 0 5.608-.842 8.246-2.528 2.712-1.76 4.911-4.398 6.597-7.917v-35.733h14.734v41.121c0 1.612.256 2.749.769 3.408.513.587 1.429.953 2.749 1.1v11.984c-1.466.293-2.712.477-3.738.55-.953.073-1.833.11-2.639.11-2.639 0-4.801-.586-6.487-1.759-1.613-1.246-2.566-2.932-2.859-5.058l-.33-4.618c-2.565 3.958-5.864 6.927-9.895 8.906-4.032 1.979-8.466 2.969-13.304 2.969-5.937 0-10.445-1.906-13.524-5.718-3.078-3.885-4.618-9.529-4.618-16.932zm101.282 22.65c-4.398 0-8.32-.99-11.765-2.969-3.445-1.979-6.157-4.691-8.136-8.136v10.005h-12.864v-80.263h14.733v32.765c2.052-3.445 4.728-6.157 8.026-8.136 3.372-1.979 7.294-2.969 11.765-2.969 4.984 0 9.346 1.393 13.084 4.178 3.812 2.712 6.78 6.341 8.906 10.885 2.126 4.545 3.188 9.529 3.188 14.953 0 5.571-1.172 10.592-3.518 15.063-2.346 4.472-5.571 8.027-9.676 10.666-4.031 2.638-8.612 3.958-13.743 3.958zm-4.068-12.535c3.152 0 5.9-.769 8.246-2.308 2.419-1.54 4.288-3.592 5.607-6.158 1.393-2.638 2.089-5.497 2.089-8.576 0-3.152-.659-6.047-1.979-8.686-1.246-2.712-3.005-4.874-5.277-6.487-2.273-1.612-4.875-2.419-7.807-2.419-3.225 0-6.194 1.1-8.906 3.299-2.638 2.126-4.618 4.764-5.937 7.916v13.744c.953 2.859 2.822 5.204 5.607 7.037 2.786 1.759 5.571 2.638 8.357 2.638z"/><path d="M104.72-72L517 527.225l-17.022 11.711L87.698-60.289z"/></svg><svg viewBox="0 0 24 24" id="search" xmlns="http://www.w3.org/2000/svg"><path d="M23.674 20.75L19 16.077a1.124 1.124 0 00-.797-.329h-.764A9.7 9.7 0 0019.5 9.75C19.501 4.364 15.137 0 9.751 0 4.364 0 0 4.364 0 9.75c0 5.384 4.364 9.748 9.75 9.748a9.705 9.705 0 006.001-2.062v.764c0 .3.117.586.328.797l4.674 4.673c.44.44 1.153.44 1.59 0l1.326-1.327c.44-.44.44-1.153.005-1.593zM9.75 15.748c-3.315 0-6-2.68-6-5.999 0-3.314 2.68-6 6-6 3.314 0 6 2.682 6 6 0 3.314-2.681 6-6 6z"/></svg><svg viewBox="0 0 15 24" id="vector" xmlns="http://www.w3.org/2000/svg"><path d="M.384 11.067L11.002.387a1.306 1.306 0 011.854 0l1.238 1.245c.512.515.512 1.348.003 1.863L5.682 12l8.414 8.505c.51.515.51 1.348-.002 1.863l-1.239 1.246a1.306 1.306 0 01-1.854 0L.384 12.932a1.325 1.325 0 010-1.865z"/></svg></svg>