<svg width="470" height="539" viewBox="0 0 470 539" fill="none" xmlns="http://www.w3.org/2000/svg">
<path d="M0 316.904V205.946H21.4652V316.904H0Z" fill="white"/>
<path d="M44.4884 316.904V205.946H93.3335C98.4178 205.946 103.102 207.017 107.408 209.148C111.713 211.28 115.424 214.102 118.53 217.582C121.646 221.073 124.076 225.027 125.839 229.455C127.602 233.883 128.483 238.342 128.483 242.822C128.483 250.01 126.69 256.549 123.112 262.429C119.534 268.319 114.686 272.562 108.566 275.167L133.763 316.893H109.653L87.101 279.698H65.9536V316.893H44.4884V316.904ZM65.9536 260.802H92.8619C94.8301 260.802 96.6752 260.328 98.3871 259.391C100.099 258.454 101.575 257.177 102.826 255.56C104.066 253.943 105.05 252.049 105.778 249.855C106.506 247.672 106.865 245.324 106.865 242.822C106.865 240.217 106.444 237.817 105.624 235.634C104.794 233.451 103.677 231.546 102.282 229.929C100.878 228.312 99.2687 227.066 97.4645 226.181C95.6501 225.295 93.805 224.852 91.9393 224.852H65.9536V260.802Z" fill="white"/>
<path d="M147.939 316.904V205.946H169.405V297.987H225.722V316.893H147.939V316.904Z" fill="white"/>
<path d="M238.782 316.904V205.946H260.247V316.904H238.782Z" fill="white"/>
<path d="M372.708 205.256H349.531L333.899 228.817L345.011 244.861L372.708 205.256Z" fill="white"/>
<path d="M371.007 315.874L322.51 245.983L309.111 226.181L294.618 205.256H271.287L310.64 261.522L272.528 316.214H295.869L322.152 276.516L348.291 316.214H371.468L371.232 315.874H371.007Z" fill="white"/>
<path d="M195.728 404.862C191.184 404.862 187.226 403.836 183.854 401.783C180.482 399.731 177.843 397.019 175.937 393.647V427.181H161.204V346.149H174.068V356.044C176.194 352.672 178.943 350.034 182.315 348.128C185.76 346.149 189.645 345.159 193.969 345.159C199.173 345.159 203.791 346.515 207.823 349.227C211.854 351.866 215.043 355.458 217.388 360.002C219.734 364.474 220.907 369.421 220.907 374.845C220.907 380.49 219.807 385.584 217.608 390.128C215.483 394.6 212.514 398.191 208.702 400.904C204.964 403.542 200.639 404.862 195.728 404.862ZM190.781 392.327C193.786 392.327 196.388 391.521 198.587 389.909C200.859 388.223 202.619 386.06 203.865 383.422C205.184 380.709 205.844 377.851 205.844 374.845C205.844 371.62 205.147 368.725 203.755 366.159C202.362 363.521 200.456 361.468 198.037 360.002C195.692 358.463 192.98 357.693 189.901 357.693C187.116 357.693 184.33 358.61 181.545 360.442C178.76 362.275 176.89 364.584 175.937 367.369V380.893C177.257 384.118 179.273 386.83 181.985 389.029C184.697 391.228 187.629 392.327 190.781 392.327ZM230.339 382.212V346.149H245.072V379.024C245.072 387.893 248.261 392.327 254.638 392.327C257.497 392.327 260.246 391.485 262.884 389.799C265.596 388.039 267.795 385.401 269.481 381.882V346.149H284.215V387.27C284.215 388.882 284.471 390.019 284.984 390.678C285.497 391.265 286.413 391.631 287.733 391.778V403.762C286.267 404.055 285.021 404.239 283.995 404.312C283.042 404.385 282.162 404.422 281.356 404.422C278.717 404.422 276.555 403.836 274.869 402.663C273.256 401.417 272.303 399.731 272.01 397.605L271.68 392.987C269.115 396.945 265.816 399.914 261.785 401.893C257.753 403.872 253.319 404.862 248.481 404.862C242.544 404.862 238.036 402.956 234.957 399.144C231.879 395.259 230.339 389.615 230.339 382.212ZM331.621 404.862C327.223 404.862 323.301 403.872 319.856 401.893C316.411 399.914 313.699 397.202 311.72 393.757V403.762H298.856V323.499H313.589V356.264C315.641 352.819 318.317 350.107 321.615 348.128C324.987 346.149 328.909 345.159 333.38 345.159C338.364 345.159 342.726 346.552 346.464 349.337C350.276 352.049 353.244 355.678 355.37 360.222C357.496 364.767 358.558 369.751 358.558 375.175C358.558 380.746 357.386 385.767 355.04 390.238C352.694 394.71 349.469 398.265 345.364 400.904C341.333 403.542 336.752 404.862 331.621 404.862ZM327.553 392.327C330.705 392.327 333.453 391.558 335.799 390.019C338.218 388.479 340.087 386.427 341.406 383.861C342.799 381.223 343.495 378.364 343.495 375.285C343.495 372.133 342.836 369.238 341.516 366.599C340.27 363.887 338.511 361.725 336.239 360.112C333.966 358.5 331.364 357.693 328.432 357.693C325.207 357.693 322.238 358.793 319.526 360.992C316.888 363.118 314.908 365.756 313.589 368.908V382.652C314.542 385.511 316.411 387.856 319.196 389.689C321.982 391.448 324.767 392.327 327.553 392.327Z" fill="white"/>
<rect x="104.72" y="-72" width="727.355" height="20.6609" transform="rotate(55.4712 104.72 -72)" fill="white"/>
</svg>
